#!OML:ASF Y:\EmotionMaleHayes\Project 1\Capture day 1\Session 1\Male1.ASF
:FULLY-SPECIFIED
:DEGREES
1266
root 37.3064 17.1816 -1.60212 1092.35 78.2762 1092.41
lowerback 3.17994 1.75703 -13.4485
upperback 5.40936 2.58546 -3.30381
thorax 3.5536 0.95752 4.01976
lowerneck -25.1642 2.86145 2.95372
upperneck 23.638 4.2979 -4.41897
head 12.1331 1.62054 -1.39636
rclavicle -7.95139e-015 -3.33958e-014
rhumerus 52.8002 15.1093 -28.6305
rradius 43.9912
rwrist -6.8136
rhand 1.36308 -31.7757
rfingers 7.12502
rthumb 26.8953 -59.8822
lclavicle -7.95139e-015 -3.33958e-014
lhumerus 48.5905 -15.4318 24.1863
lradius 43.4315
lwrist 10.1237
lhand -10.7469 -22.807
lfingers 7.12502
lthumb 15.2643 6.60974
rfemur -10.7026 -13.564 8.6399
rtibia 6.02777
rfoot 5.61862 -1.66788
rtoes 24.0198
lfemur 24.6097 -5.35914 -19.5727
ltibia 11.6851
lfoot -8.81937 13.2606
ltoes -16.507
1267
root 37.4319 17.1379 -1.52965 1090.79 78.5724 1090.81
lowerback 3.03683 1.63483 -12.8799
upperback 5.3017 2.42273 -3.178
thorax 3.54685 0.893591 3.84857
lowerneck -25.2103 2.85964 2.61551
upperneck 23.6269 4.27151 -3.90677
head 12.1134 1.64606 -1.15086
rclavicle -1.19271e-015 2.22639e-014
rhumerus 52.9371 15.1501 -28.6227
rradius 43.9316
rwrist -6.91207
rhand 1.44677 -31.7101
rfingers 7.12502
rthumb 26.9754 -59.8043
lclavicle -1.19271e-015 2.22639e-014
lhumerus 48.4638 -15.4948 24.2709
lradius 43.4819
lwrist 10.0507
lhand -10.7609 -23.033
lfingers 7.12502
lthumb 15.2508 6.38481
rfemur -11.1329 -13.6804 9.60752
rtibia 6.07528
rfoot 5.99588 -1.53752
rtoes 26.327
lfemur 24.874 -5.48647 -18.8841
ltibia 12.0383
lfoot -8.71851 13.0628
ltoes -16.2651
1268
root 37.5712 17.088 -1.45349 1090.67 78.7907 1090.82
lowerback 2.82647 1.564 -12.6442
upperback 5.28864 2.35709 -3.12476
thorax 3.6631 0.860262 3.78332
lowerneck -25.0371 2.79387 2.86816
upperneck 23.1218 4.20194 -4.41937
head 11.9021 1.57386 -1.39714
rclavicle -1.35174e-014 1.90833e-014
rhumerus 52.9857 15.0891 -28.6387
rradius 43.9058
rwrist -6.93504
rhand 1.44345 -31.5235
rfingers 7.12502
rthumb 26.9722 -59.6182
lclavicle -1.35174e-014 1.90833e-014
lhumerus 48.3621 -15.6634 24.0734
lradius 43.7598
lwrist 10.2736
lhand -10.9364 -22.6506
lfingers 7.12502
lthumb 15.0818 6.77996
rfemur -11.3381 -14.011 10.1052
rtibia 6.28232
rfoot 5.81047 -1.48103
rtoes 29.0136
lfemur 25.4125 -5.58166 -18.6208
ltibia 12.2165
lfoot -8.73249 12.8593
ltoes -15.1256
1269
root 37.7117 17.0365 -1.37678 1094.94 78.8825 1095.31
lowerback 2.69562 1.51471 -13.3796
upperback 5.26388 2.31984 -3.20759
thorax 3.71192 0.817578 4.10091
lowerneck -25.473 2.77919 2.88131
upperneck 23.3573 4.1908 -4.46383
head 12.0774 1.55502 -1.41718
rclavicle -2.90226e-014 -4.13472e-014
rhumerus 52.9534 15.0347 -28.5456
rradius 43.9895
rwrist -6.80304
rhand 1.37515 -31.469
rfingers 7.12502
rthumb 26.9069 -59.5738
lclavicle -2.90226e-014 -4.13472e-014
lhumerus 48.4083 -15.8074 24.2468
lradius 43.6971
lwrist 10.2645
lhand -11.1339 -22.5512
lfingers 7.12502
lthumb 14.8915 6.89361
rfemur -11.4632 -14.5432 9.47358
rtibia 7.21948
rfoot 3.49113 -3.61118
rtoes 23.0812
lfemur 25.818 -5.52032 -19.3094
ltibia 12.6573
lfoot -8.5706 12.6112
ltoes -14.8691
1270
root 37.8467 16.9911 -1.30688 1099.29 79.1143 1099.78
lowerback 2.65629 1.40307 -13.9518
upperback 5.20055 2.17804 -3.26316
thorax 3.68771 0.733599 4.35518
lowerneck -25.8663 2.73101 2.72496
upperneck 23.4308 4.17916 -4.46947
head 12.1772 1.52705 -1.39403
rclavicle 1.07344e-014 2.70347e-014
rhumerus 52.9291 14.9744 -28.4084
rradius 44.0569
rwrist -6.64744
rhand 1.4033 -31.491
rfingers 7.12502
rthumb 26.9338 -59.5917
lclavicle 1.07344e-014 2.70347e-014
lhumerus 48.5866 -15.8792 24.626
lradius 43.3953
lwrist 10.1156
lhand -11.2987 -22.6528
lfingers 7.12502
lthumb 14.7328 6.80363
rfemur -11.6497 -15.2644 8.90594
rtibia 8.29367
rfoot 1.3676 -6.47961
rtoes 17.094
lfemur 25.9816 -5.51267 -19.8722
ltibia 13.2728
lfoot -8.05514 12.2307
ltoes -15.5354
1271
root 37.9785 16.9384 -1.23203 1098.82 79.2232 1099.34
lowerback 2.64431 1.34732 -13.7265
upperback 4.9884 2.06468 -3.12966
thorax 3.48061 0.697727 4.3728
lowerneck -25.761 2.78726 2.64571
upperneck 23.2397 4.245 -4.35335
head 12.0801 1.56774 -1.32447
rclavicle -1.98785e-015 3.49861e-014
rhumerus 52.9847 15.169 -28.4958
rradius 44.0634
rwrist -6.51144
rhand 1.45647 -31.4634
rfingers 7.12502
rthumb 26.9847 -59.5562
lclavicle -1.98785e-015 3.49861e-014
lhumerus 48.3804 -16.0175 24.9555
lradius 43.2391
lwrist 9.78189
lhand -11.2085 -22.5064
lfingers 7.12502
lthumb 14.8197 6.94365
rfemur -11.9709 -15.0079 9.52517
rtibia 9.71556
rfoot -0.536526 -6.7413
rtoes 19.6107
lfemur 26.325 -5.36527 -19.333
ltibia 13.5941
lfoot -7.60617 11.8736
ltoes -15.6026
1272
root 38.114 16.8856 -1.15399 1099.45 79.3456 1100.16
lowerback 2.70794 1.30402 -13.695
upperback 4.86042 1.97214 -3.03634
thorax 3.31905 0.662891 4.45211
lowerneck -25.7314 2.80998 2.5943
upperneck 23.0454 4.28553 -4.3562
head 11.9996 1.58231 -1.30894
rclavicle -1.27222e-014 -4.6118e-014
rhumerus 53.0262 15.2775 -28.5604
rradius 44.0912
rwrist -6.39907
rhand 1.43379 -31.4383
rfingers 7.12502
rthumb 26.963 -59.5344
lclavicle -1.27222e-014 -4.6118e-014
lhumerus 48.1191 -16.0481 25.499
lradius 43.1859
lwrist 9.09012
lhand -10.887 -22.3093
lfingers 7.12502
lthumb 15.1293 7.11776
rfemur -11.9844 -14.3989 9.7569
rtibia 10.9132
rfoot -2.18308 -7.15346
rtoes 19.7151
lfemur 26.7738 -5.27337 -19.006
ltibia 13.9524
lfoot -7.31936 11.5343
ltoes -14.3126
1273
root 38.2474 16.8325 -1.07214 1100.65 79.4372 1101.63
lowerback 2.83035 1.27002 -13.7512
upperback 4.80796 1.89815 -3.01805
thorax 3.20523 0.632753 4.49932
lowerneck -25.988 2.80827 2.75537
upperneck 23.0356 4.25905 -4.52451
head 12.0517 1.55729 -1.40254
rclavicle -6.36111e-015 3.65764e-014
rhumerus 53.1152 15.3164 -28.6904
rradius 44.0771
rwrist -6.32414
rhand 1.39079 -31.3834
rfingers 7.12502
rthumb 26.9218 -59.4858
lclavicle -6.36111e-015 3.65764e-014
lhumerus 47.9498 -16.0704 25.7978
lradius 43.1661
lwrist 8.65026
lhand -10.7095 -22.3322
lfingers 7.12502
lthumb 15.3004 7.08188
rfemur -11.7705 -12.9836 9.75096
rtibia 12.0931
rfoot -4.18294 -8.16162
rtoes 22.3447
lfemur 27.218 -5.21882 -18.7608
ltibia 14.4248
lfoot -6.94917 11.2126
ltoes -12.4244
1274
root 38.3746 16.7833 -0.990826 1101.34 79.5935 1102.57
lowerback 3.10538 1.22757 -13.7308
upperback 4.70977 1.77787 -2.96078
thorax 2.96319 0.590063 4.54293
lowerneck -25.9368 2.95813 2.90015
upperneck 22.8155 4.40972 -4.56544
head 11.9677 1.63386 -1.41391
rclavicle 4.77083e-015 3.33958e-014
rhumerus 53.1797 15.3812 -29.0994
rradius 43.9906
rwrist -6.13333
rhand 1.32701 -31.3578
rfingers 7.12502
rthumb 26.8608 -59.4697
lclavicle 4.77083e-015 3.33958e-014
lhumerus 47.7761 -16.2119 25.9511
lradius 43.0749
lwrist 8.54846
lhand -10.7949 -22.2203
lfingers 7.12502
lthumb 15.2181 7.20001
rfemur -11.6378 -11.6471 9.89057
rtibia 12.9992
rfoot -5.46446 -9.37052
rtoes 21.2065
lfemur 27.623 -5.19642 -18.3644
ltibia 14.8663
lfoot -6.11976 10.8873
ltoes -11.8101
